# xmcd
#
# Track frame offsets:
#	150
#	5244
#	28809
#	47184
#	69201
#	96640
#	120383
#	135046
#	152030
#	173787
#	196387
#	204425
#	213592
#
# Disc length: 2942 seconds
#
# Revision: 0
# Processed by: cddbd v1.5.2PL0 Copyright (c) Steve Scherf et al.
# Submitted via: EZCDAudioConverter 1.3.4.1
#
DISCID=b40b7c0d
DTITLE=Mop Mop - Isle Of Magic
DYEAR=1900
DGENRE=
TTITLE0=Jua Kiss
TTITLE1=Let I Go
TTITLE2=Kamakumba
TTITLE3=Heritage
TTITLE4=Phantom Of The Panther
TTITLE5=Run Around
TTITLE6=The Golden Bamboo
TTITLE7=Loa Chant
TTITLE8=Black Ivory
TTITLE9=Damballah
TTITLE10=Mojomamy
TTITLE11=Afro Jojo (Part 1)
TTITLE12=Afro Jojo (Part 2)
EXTD=
EXTT0=
EXTT1=
EXTT2=
EXTT3=
EXTT4=
EXTT5=
EXTT6=
EXTT7=
EXTT8=
EXTT9=
EXTT10=
EXTT11=
EXTT12=
PLAYORDER=
